<svg width="72" height="72" viewBox="0 0 72 72" fill="none" xmlns="http://www.w3.org/2000/svg">
<g clip-path="url(#clip0_1206_145)">
<g clip-path="url(#clip1_1206_145)">
<g clip-path="url(#clip2_1206_145)">
<path d="M40.5348 24.4541C43.0201 24.4541 45.0348 22.4394 45.0348 19.9541C45.0348 17.4688 43.0201 15.4541 40.5348 15.4541C38.0495 15.4541 36.0348 17.4688 36.0348 19.9541C36.0348 22.4394 38.0495 24.4541 40.5348 24.4541Z" fill="#F68820"/>
</g>
<path d="M64.8349 65.8541L45.0349 39.4537V20.5166C45.0349 19.2746 44.0269 18.2666 42.7849 18.2666C41.5429 18.2666 40.5349 19.2746 40.5349 20.5166V39.4537L20.7349 65.8541C19.989 66.8486 20.1915 68.2594 21.1849 69.0041C21.5899 69.309 22.0635 69.4541 22.5338 69.4541C23.2178 69.4541 23.8928 69.1436 24.336 68.5541L40.536 46.9541V67.2041C40.536 68.4461 41.544 69.4541 42.786 69.4541C44.028 69.4541 45.036 68.4461 45.036 67.2041V46.9541L61.236 68.5541C61.6782 69.1425 62.3543 69.4541 63.0383 69.4541C63.5074 69.4541 63.9822 69.3079 64.3872 69.0041C65.3783 68.2594 65.5797 66.8486 64.8349 65.8541Z" fill="#55525B"/>
<g clip-path="url(#clip3_1206_145)">
<path d="M36.0314 53.7042C35.0921 53.7042 34.1448 53.4106 33.3348 52.8042C31.3458 51.3125 30.9442 48.4921 32.4348 46.5031L39.1848 37.5031C40.6777 35.5152 43.4969 35.1147 45.4848 36.6031C47.4738 38.0948 47.8754 40.9152 46.3848 42.9042L39.6348 51.9042C38.7506 53.0832 37.3994 53.7042 36.0314 53.7042Z" fill="#5C76B2"/>
</g>
<g clip-path="url(#clip4_1206_145)">
<path d="M49.5382 53.7041C48.1702 53.7041 46.8191 53.0831 45.9348 51.9041L39.1848 42.9041C37.6942 40.9151 38.097 38.0959 40.0848 36.603C42.0716 35.1135 44.892 35.5129 46.3848 37.503L53.1348 46.503C54.6255 48.492 54.2227 51.3112 52.2348 52.8041C51.4248 53.4116 50.4776 53.7041 49.5382 53.7041Z" fill="#5C76B2"/>
</g>
<g clip-path="url(#clip5_1206_145)">
<g clip-path="url(#clip6_1206_145)">
<path d="M63.7965 13.4956L59.3651 12.7138C55.6942 12.0669 52.1932 14.5183 51.5452 18.1891C50.8984 21.86 53.3497 25.361 57.0206 26.009L61.452 26.7909C65.1229 27.4378 68.6239 24.9864 69.2719 21.3155C69.9187 17.6435 67.4674 14.1425 63.7965 13.4956Z" fill="#F68820"/>
</g>
<g clip-path="url(#clip7_1206_145)">
<path d="M58.1929 26.1113C61.9208 26.1113 64.9429 23.0892 64.9429 19.3613C64.9429 15.6334 61.9208 12.6113 58.1929 12.6113C54.4649 12.6113 51.4429 15.6334 51.4429 19.3613C51.4429 23.0892 54.4649 26.1113 58.1929 26.1113Z" fill="#FBBE18"/>
</g>
<g clip-path="url(#clip8_1206_145)">
<path d="M57.411 23.7939L41.9007 21.059L43.4633 12.1963L58.9737 14.9312C61.4216 15.3632 63.0551 17.6964 62.6243 20.1444C62.1923 22.5902 59.859 24.2248 57.411 23.7939Z" fill="#6FA4D8"/>
</g>
<g clip-path="url(#clip9_1206_145)">
<path d="M41.9007 21.0578L57.411 23.7927C59.859 24.2247 62.1923 22.5901 62.6243 20.1421L42.6825 16.6265L41.9007 21.0578Z" fill="#5C76B2"/>
</g>
<g clip-path="url(#clip10_1206_145)">
<path d="M37.0777 22.4923L21.5673 19.7574L23.9118 6.46216L39.4222 9.19703C43.0931 9.84391 45.5445 13.3449 44.8976 17.0169C44.2507 20.6889 40.7497 23.1403 37.0777 22.4923Z" fill="#6FA4D8"/>
</g>
<g clip-path="url(#clip11_1206_145)">
<path d="M21.5673 19.7572L37.0777 22.4921C40.7486 23.139 44.2496 20.6876 44.8976 17.0167L22.7396 13.1096L21.5673 19.7572Z" fill="#5C76B2"/>
</g>
<g clip-path="url(#clip12_1206_145)">
<path d="M20.2612 1.24993L15.8299 0.46806C9.71098 -0.610815 3.87673 3.47518 2.79673 9.59406C1.71786 15.7129 5.80386 21.5472 11.9227 22.6272L16.3541 23.4091C22.473 24.4879 28.3084 20.4019 29.3872 14.2831C30.4661 8.16306 26.3801 2.32881 20.2612 1.24993Z" fill="#F68820"/>
</g>
<g clip-path="url(#clip13_1206_145)">
<path d="M13.8768 22.7971C20.09 22.7971 25.1268 17.7603 25.1268 11.5471C25.1268 5.33392 20.09 0.297119 13.8768 0.297119C7.66363 0.297119 2.62683 5.33392 2.62683 11.5471C2.62683 17.7603 7.66363 22.7971 13.8768 22.7971Z" fill="#FBBE18"/>
</g>
<g clip-path="url(#clip14_1206_145)">
<path d="M13.8768 20.5471C18.8474 20.5471 22.8768 16.5177 22.8768 11.5471C22.8768 6.57656 18.8474 2.54712 13.8768 2.54712C8.90627 2.54712 4.87683 6.57656 4.87683 11.5471C4.87683 16.5177 8.90627 20.5471 13.8768 20.5471Z" fill="#55525B"/>
</g>
<g clip-path="url(#clip15_1206_145)">
<path d="M12.7485 2.61682C9.80999 2.98695 7.22249 4.7982 5.87024 7.43295C6.29211 9.09795 7.64436 10.4479 9.44549 10.7663C11.8935 11.1983 14.2267 9.5637 14.6587 7.1157C14.9749 5.31457 14.1694 3.58207 12.7485 2.61682Z" fill="#B3B4B6"/>
</g>
</g>
<g clip-path="url(#clip16_1206_145)">
<path d="M45.0348 24.4541C47.5201 24.4541 49.5348 22.4394 49.5348 19.9541C49.5348 17.4688 47.5201 15.4541 45.0348 15.4541C42.5495 15.4541 40.5348 17.4688 40.5348 19.9541C40.5348 22.4394 42.5495 24.4541 45.0348 24.4541Z" fill="#FBBE18"/>
</g>
<g clip-path="url(#clip17_1206_145)">
<path d="M45.0348 22.2041C46.2775 22.2041 47.2848 21.1967 47.2848 19.9541C47.2848 18.7115 46.2775 17.7041 45.0348 17.7041C43.7922 17.7041 42.7848 18.7115 42.7848 19.9541C42.7848 21.1967 43.7922 22.2041 45.0348 22.2041Z" fill="#55525B"/>
</g>
<g clip-path="url(#clip18_1206_145)">
<path d="M22.5348 71.7041C25.0201 71.7041 27.0348 69.6894 27.0348 67.2041C27.0348 64.7188 25.0201 62.7041 22.5348 62.7041C20.0496 62.7041 18.0348 64.7188 18.0348 67.2041C18.0348 69.6894 20.0496 71.7041 22.5348 71.7041Z" fill="#F68820"/>
</g>
<g clip-path="url(#clip19_1206_145)">
<path d="M63.0348 71.7041C65.5201 71.7041 67.5348 69.6894 67.5348 67.2041C67.5348 64.7188 65.5201 62.7041 63.0348 62.7041C60.5495 62.7041 58.5348 64.7188 58.5348 67.2041C58.5348 69.6894 60.5495 71.7041 63.0348 71.7041Z" fill="#F68820"/>
</g>
<g clip-path="url(#clip20_1206_145)">
<path d="M42.7848 71.7041C45.2701 71.7041 47.2848 69.6894 47.2848 67.2041C47.2848 64.7188 45.2701 62.7041 42.7848 62.7041C40.2995 62.7041 38.2848 64.7188 38.2848 67.2041C38.2848 69.6894 40.2995 71.7041 42.7848 71.7041Z" fill="#F68820"/>
</g>
<g clip-path="url(#clip21_1206_145)">
<path d="M42.7848 53.7041C40.2997 53.7041 38.2848 51.6892 38.2848 49.2041V40.2041C38.2848 37.719 40.2997 35.7041 42.7848 35.7041C45.2699 35.7041 47.2848 37.719 47.2848 40.2041V49.2041C47.2848 51.6892 45.2699 53.7041 42.7848 53.7041Z" fill="#F68820"/>
</g>
<g clip-path="url(#clip22_1206_145)">
<path d="M42.7848 53.7041C40.2997 53.7041 38.2848 51.6892 38.2848 49.2041V40.2041C38.2848 37.719 40.2997 35.7041 42.7848 35.7041C45.2699 35.7041 47.2848 37.719 47.2848 40.2041V49.2041C47.2848 51.6892 45.2699 53.7041 42.7848 53.7041Z" fill="#6FA4D8"/>
</g>
</g>
</g>
<defs>
<clipPath id="clip0_1206_145">
<rect width="72" height="72" fill="white"/>
</clipPath>
<clipPath id="clip1_1206_145">
<rect width="66.7514" height="71.4089" fill="white" transform="translate(2.62396 0.295288)"/>
</clipPath>
<clipPath id="clip2_1206_145">
<rect width="9" height="8.99999" fill="white" transform="translate(36.0348 15.4541)"/>
</clipPath>
<clipPath id="clip3_1206_145">
<rect width="15.7505" height="18.0001" fill="white" transform="translate(31.5346 35.7041)"/>
</clipPath>
<clipPath id="clip4_1206_145">
<rect width="15.7499" height="18.0012" fill="white" transform="translate(38.2849 35.7029)"/>
</clipPath>
<clipPath id="clip5_1206_145">
<rect width="66.7514" height="26.5991" fill="white" transform="translate(2.62396 0.295288)"/>
</clipPath>
<clipPath id="clip6_1206_145">
<rect width="17.9337" height="14.2842" fill="white" transform="translate(51.4417 12.6102)"/>
</clipPath>
<clipPath id="clip7_1206_145">
<rect width="13.5" height="13.5" fill="white" transform="translate(51.4429 12.6113)"/>
</clipPath>
<clipPath id="clip8_1206_145">
<rect width="20.7926" height="11.6665" fill="white" transform="translate(41.9007 12.1963)"/>
</clipPath>
<clipPath id="clip9_1206_145">
<rect width="20.7236" height="7.23548" fill="white" transform="translate(41.9007 16.6265)"/>
</clipPath>
<clipPath id="clip10_1206_145">
<rect width="23.4338" height="16.134" fill="white" transform="translate(21.5673 6.46216)"/>
</clipPath>
<clipPath id="clip11_1206_145">
<rect width="23.3303" height="9.48603" fill="white" transform="translate(21.5673 13.1096)"/>
</clipPath>
<clipPath id="clip12_1206_145">
<rect width="26.936" height="23.2865" fill="white" transform="translate(2.62396 0.295288)"/>
</clipPath>
<clipPath id="clip13_1206_145">
<rect width="22.5" height="22.5" fill="white" transform="translate(2.62683 0.297119)"/>
</clipPath>
<clipPath id="clip14_1206_145">
<rect width="18" height="18" fill="white" transform="translate(4.87683 2.54712)"/>
</clipPath>
<clipPath id="clip15_1206_145">
<rect width="8.85681" height="8.21873" fill="white" transform="translate(5.87024 2.61682)"/>
</clipPath>
<clipPath id="clip16_1206_145">
<rect width="9" height="8.99999" fill="white" transform="translate(40.5348 15.4541)"/>
</clipPath>
<clipPath id="clip17_1206_145">
<rect width="4.5" height="4.49999" fill="white" transform="translate(42.7848 17.7041)"/>
</clipPath>
<clipPath id="clip18_1206_145">
<rect width="9" height="9" fill="white" transform="translate(18.0348 62.7041)"/>
</clipPath>
<clipPath id="clip19_1206_145">
<rect width="9" height="9" fill="white" transform="translate(58.5348 62.7041)"/>
</clipPath>
<clipPath id="clip20_1206_145">
<rect width="9" height="9" fill="white" transform="translate(38.2848 62.7041)"/>
</clipPath>
<clipPath id="clip21_1206_145">
<rect width="9" height="18" fill="white" transform="translate(38.2848 35.7041)"/>
</clipPath>
<clipPath id="clip22_1206_145">
<rect width="9" height="18" fill="white" transform="translate(38.2848 35.7041)"/>
</clipPath>
</defs>
</svg>
