<svg width="72" height="72" viewBox="0 0 72 72" fill="none" xmlns="http://www.w3.org/2000/svg">
<g clip-path="url(#clip0_1206_195)">
<g clip-path="url(#clip1_1206_195)">
<g clip-path="url(#clip2_1206_195)">
<path d="M42.7501 43.875V32.625H29.2501V43.875L13.0501 65.475C11.3817 67.7003 12.9691 70.875 15.7501 70.875H56.2501C59.0311 70.875 60.6184 67.7003 58.9501 65.475L42.7501 43.875Z" fill="#6FA4D8"/>
</g>
<g clip-path="url(#clip3_1206_195)">
<path d="M58.95 65.475L42.75 43.875V32.625H36H29.25V35.4375H34.3125C35.244 35.4375 36 36.1935 36 37.125V43.875L45 70.875H56.25C59.031 70.875 60.6184 67.7003 58.95 65.475Z" fill="#5C76B2"/>
</g>
<g clip-path="url(#clip4_1206_195)">
<path d="M42.75 32.625H29.25C28.0069 32.625 27 31.6181 27 30.375C27 29.1319 28.0069 28.125 29.25 28.125H42.75C43.9931 28.125 45 29.1319 45 30.375C45 31.6181 43.9931 32.625 42.75 32.625Z" fill="#6FA4D8"/>
</g>
<g clip-path="url(#clip5_1206_195)">
<path d="M42.75 28.125H36C37.2431 28.125 38.25 29.1319 38.25 30.375C38.25 31.6181 37.2431 32.625 36 32.625H42.75C43.9931 32.625 45 31.6181 45 30.375C45 29.1319 43.9931 28.125 42.75 28.125Z" fill="#5C76B2"/>
</g>
<g clip-path="url(#clip6_1206_195)">
<path d="M54 66.3751H18L26.4375 55.1251L26.4386 55.1239C28.8281 51.9357 33.6105 51.9346 36.0011 55.1217L36.0022 55.1228C38.3929 58.3088 43.1707 58.3099 45.5625 55.1251L54 66.3751Z" fill="#F68820"/>
</g>
<g clip-path="url(#clip7_1206_195)">
<path d="M45.5625 55.1251L45.5614 55.1239C43.1719 51.9357 38.3895 51.9346 35.9989 55.1217L35.9977 55.1228C33.6071 58.3088 28.8293 58.3099 26.4375 55.1251L18 66.3751H54L45.5625 55.1251Z" fill="#FBBE18"/>
</g>
<g clip-path="url(#clip8_1206_195)">
<path d="M45.5625 55.1251L45.5614 55.124C43.9751 53.0067 41.3359 52.3036 39.0409 52.9977L43.5004 66.3751H54L45.5625 55.1251Z" fill="#F68820"/>
</g>
<g clip-path="url(#clip9_1206_195)">
<path d="M32.0625 62.4375C32.9945 62.4375 33.75 61.682 33.75 60.75C33.75 59.818 32.9945 59.0625 32.0625 59.0625C31.1305 59.0625 30.375 59.818 30.375 60.75C30.375 61.682 31.1305 62.4375 32.0625 62.4375Z" fill="#F68820"/>
</g>
<g clip-path="url(#clip10_1206_195)">
<path d="M28.125 64.6875C28.7463 64.6875 29.25 64.1838 29.25 63.5625C29.25 62.9412 28.7463 62.4375 28.125 62.4375C27.5037 62.4375 27 62.9412 27 63.5625C27 64.1838 27.5037 64.6875 28.125 64.6875Z" fill="#F68820"/>
</g>
<g clip-path="url(#clip11_1206_195)">
<path d="M30.375 21.375C33.4816 21.375 36 18.8566 36 15.75C36 12.6434 33.4816 10.125 30.375 10.125C27.2684 10.125 24.75 12.6434 24.75 15.75C24.75 18.8566 27.2684 21.375 30.375 21.375Z" fill="#F68820"/>
</g>
<g clip-path="url(#clip12_1206_195)">
<path d="M28.6875 15.75C29.6195 15.75 30.375 14.9945 30.375 14.0625C30.375 13.1305 29.6195 12.375 28.6875 12.375C27.7555 12.375 27 13.1305 27 14.0625C27 14.9945 27.7555 15.75 28.6875 15.75Z" fill="#FBBE18"/>
</g>
<g clip-path="url(#clip13_1206_195)">
<path d="M41.625 25.875C43.489 25.875 45 24.364 45 22.5C45 20.636 43.489 19.125 41.625 19.125C39.761 19.125 38.25 20.636 38.25 22.5C38.25 24.364 39.761 25.875 41.625 25.875Z" fill="#F68820"/>
</g>
<g clip-path="url(#clip14_1206_195)">
<path d="M40.5 22.5C41.1213 22.5 41.625 21.9963 41.625 21.375C41.625 20.7537 41.1213 20.25 40.5 20.25C39.8787 20.25 39.375 20.7537 39.375 21.375C39.375 21.9963 39.8787 22.5 40.5 22.5Z" fill="#FBBE18"/>
</g>
<g clip-path="url(#clip15_1206_195)">
<path d="M46.4062 2.53125C46.4062 3.3075 45 5.625 45 5.625C45 5.625 43.5938 3.3075 43.5938 2.53125C43.5938 1.755 44.2237 1.125 45 1.125C45.7762 1.125 46.4062 1.755 46.4062 2.53125Z" fill="#F68820"/>
</g>
<g clip-path="url(#clip16_1206_195)">
<path d="M41.075 3.98471C41.7477 4.37396 43.0516 6.74996 43.0516 6.74996C43.0516 6.74996 40.3415 6.80959 39.6687 6.42146C38.9971 6.03221 38.7665 5.17271 39.1546 4.49996C39.5427 3.82721 40.4033 3.59659 41.075 3.98471Z" fill="#F68820"/>
</g>
<g clip-path="url(#clip17_1206_195)">
<path d="M39.6687 9.3285C40.3415 8.94037 43.0516 9 43.0516 9C43.0516 9 41.7477 11.376 41.075 11.7652C40.4022 12.1534 39.5427 11.9227 39.1535 11.25C38.7665 10.5772 38.9971 9.71775 39.6687 9.3285Z" fill="#F68820"/>
</g>
<g clip-path="url(#clip18_1206_195)">
<path d="M43.5938 13.2188C43.5938 12.4425 45 10.125 45 10.125C45 10.125 46.4062 12.4425 46.4062 13.2188C46.4062 13.995 45.7762 14.625 45 14.625C44.2237 14.625 43.5938 13.995 43.5938 13.2188Z" fill="#F68820"/>
</g>
<g clip-path="url(#clip19_1206_195)">
<path d="M48.9252 11.7652C48.2524 11.376 46.9485 9 46.9485 9C46.9485 9 49.6587 8.94037 50.3314 9.3285C51.0042 9.71662 51.2348 10.5772 50.8467 11.25C50.4574 11.9227 49.5968 12.1534 48.9252 11.7652Z" fill="#F68820"/>
</g>
<g clip-path="url(#clip20_1206_195)">
<path d="M50.3314 6.42147C49.6587 6.8096 46.9485 6.74997 46.9485 6.74997C46.9485 6.74997 48.2524 4.37397 48.9252 3.98472C49.5979 3.59547 50.4574 3.82722 50.8455 4.49997C51.2337 5.17272 51.003 6.03222 50.3314 6.42147Z" fill="#F68820"/>
</g>
</g>
</g>
<defs>
<clipPath id="clip0_1206_195">
<rect width="72" height="72" fill="white"/>
</clipPath>
<clipPath id="clip1_1206_195">
<rect width="47.2619" height="69.75" fill="white" transform="translate(12.3691 1.125)"/>
</clipPath>
<clipPath id="clip2_1206_195">
<rect width="47.2619" height="38.25" fill="white" transform="translate(12.3691 32.625)"/>
</clipPath>
<clipPath id="clip3_1206_195">
<rect width="30.381" height="38.25" fill="white" transform="translate(29.25 32.625)"/>
</clipPath>
<clipPath id="clip4_1206_195">
<rect width="18" height="4.5" fill="white" transform="translate(27 28.125)"/>
</clipPath>
<clipPath id="clip5_1206_195">
<rect width="9" height="4.5" fill="white" transform="translate(36 28.125)"/>
</clipPath>
<clipPath id="clip6_1206_195">
<rect width="36" height="13.643" fill="white" transform="translate(18 52.7321)"/>
</clipPath>
<clipPath id="clip7_1206_195">
<rect width="36" height="13.643" fill="white" transform="translate(18 52.7321)"/>
</clipPath>
<clipPath id="clip8_1206_195">
<rect width="14.9591" height="13.6357" fill="white" transform="translate(39.0409 52.7394)"/>
</clipPath>
<clipPath id="clip9_1206_195">
<rect width="3.375" height="3.375" fill="white" transform="translate(30.375 59.0625)"/>
</clipPath>
<clipPath id="clip10_1206_195">
<rect width="2.25" height="2.25" fill="white" transform="translate(27 62.4375)"/>
</clipPath>
<clipPath id="clip11_1206_195">
<rect width="11.25" height="11.25" fill="white" transform="translate(24.75 10.125)"/>
</clipPath>
<clipPath id="clip12_1206_195">
<rect width="3.375" height="3.375" fill="white" transform="translate(27 12.375)"/>
</clipPath>
<clipPath id="clip13_1206_195">
<rect width="6.75" height="6.75" fill="white" transform="translate(38.25 19.125)"/>
</clipPath>
<clipPath id="clip14_1206_195">
<rect width="2.25" height="2.25" fill="white" transform="translate(39.375 20.25)"/>
</clipPath>
<clipPath id="clip15_1206_195">
<rect width="2.8125" height="4.5" fill="white" transform="translate(43.5938 1.125)"/>
</clipPath>
<clipPath id="clip16_1206_195">
<rect width="4.08548" height="2.95699" fill="white" transform="translate(38.9661 3.79626)"/>
</clipPath>
<clipPath id="clip17_1206_195">
<rect width="4.08582" height="2.95699" fill="white" transform="translate(38.9658 8.9967)"/>
</clipPath>
<clipPath id="clip18_1206_195">
<rect width="2.8125" height="4.5" fill="white" transform="translate(43.5938 10.125)"/>
</clipPath>
<clipPath id="clip19_1206_195">
<rect width="4.08658" height="2.95699" fill="white" transform="translate(46.9485 8.9967)"/>
</clipPath>
<clipPath id="clip20_1206_195">
<rect width="4.08548" height="2.95749" fill="white" transform="translate(46.9485 3.79578)"/>
</clipPath>
</defs>
</svg>
